# xmcd
#
# Track frame offsets:
# 150
# 27295
# 46474
# 63047
# 85276
# 105453
# 123121
# 145821
# 178597
# 196240
# 219675
# 237034
# 255036
# 270967
# 288835
# 310845
#
# Disc length: 4444 seconds
#
#
# Revision: 0
# Processed by: cddbd v1.5.1PL2 Copyright (c) Steve Scherf et al.
# Submitted via: FreeRIP 2.943 
#
DISCID=cd115a10
DTITLE=Sting - Fields Of Gold (1984-1994)
DYEAR=1994
DGENRE=Pop
TTITLE0=When We Dance
TTITLE1=If You Love Somebody Set Them Free
TTITLE2=Fields Of Gold
TTITLE3=All This Time
TTITLE4=Englishman In New York
TTITLE5=Mad About You
TTITLE6=It's Probably Me
TTITLE7=They Dance Alone (Cueca Solo)
TTITLE8=Fragile
TTITLE9=Love Is Stronger Than Justice (The Munificent Seven)
TTITLE10=We'll Be Together
TTITLE11=Moon Over Bourbon Street
TTITLE12=Love Is The Seventh Wave
TTITLE13=Russians
TTITLE14=Why Should I Cry For You
TTITLE15=This Cowboy Song
EXTD=
EXTT0=
EXTT1=
EXTT2=
EXTT3=
EXTT4=
EXTT5=
EXTT6=
EXTT7=
EXTT8=
EXTT9=
EXTT10=
EXTT11=
EXTT12=
EXTT13=
EXTT14=
EXTT15=
PLAYORDER=
